<svg width="45" height="45" viewBox="0 0 45 45" fill="none" xmlns="http://www.w3.org/2000/svg">
<g clip-path="url(#clip0_31_491)">
<path d="M44.4438 2.43156C44.0729 2.06092 43.6333 1.87498 43.1254 1.87498C42.6176 1.87498 42.1786 2.06092 41.8071 2.43156L37.9987 6.21143C35.9089 4.23853 33.516 2.70986 30.8209 1.62613C28.126 0.542301 25.3518 0.000488281 22.5001 0.000488281C17.1288 0.000488281 12.4415 1.62623 8.43744 4.87844C4.43327 8.13024 1.79666 12.373 0.5271 17.6078V17.8127C0.5271 18.0666 0.619762 18.2865 0.805394 18.4718C0.991026 18.6574 1.21062 18.7501 1.46449 18.7501H7.29451C7.72437 18.7501 8.01713 18.5253 8.17351 18.0764C8.99372 16.1234 9.51111 14.9809 9.72619 14.6487C11.0932 12.4222 12.9096 10.674 15.1754 9.40443C17.4414 8.13496 19.8827 7.49997 22.4997 7.49997C26.4259 7.49997 29.834 8.83799 32.7249 11.5138L28.6812 15.5566C28.311 15.9277 28.1249 16.3674 28.1249 16.8753C28.1249 17.383 28.3109 17.8225 28.6812 18.1936C29.0528 18.5648 29.4924 18.7502 30.0002 18.7502H43.1254C43.6332 18.7502 44.0728 18.5648 44.4438 18.1936C44.8145 17.8225 45 17.3831 45 16.8753V3.74998C45 3.24213 44.8157 2.80283 44.4438 2.43156Z" fill="#E5768B"/>
<path d="M43.3298 26.2505H37.7048C37.2751 26.2505 36.9821 26.4749 36.8262 26.9243C36.0063 28.8775 35.4883 30.0195 35.2738 30.3517C33.9063 32.5777 32.0898 34.3265 29.8247 35.5959C27.5586 36.8658 25.1173 37.5001 22.5002 37.5001C20.6058 37.5001 18.7794 37.1488 17.0218 36.4459C15.264 35.7422 13.6915 34.7459 12.305 33.4567L16.3188 29.4432C16.6897 29.0724 16.8754 28.6324 16.8754 28.1249C16.8754 27.6171 16.6897 27.1771 16.3188 26.8066C15.9476 26.4351 15.5083 26.2493 15.0005 26.2493H1.8752C1.36705 26.2493 0.927544 26.4351 0.556485 26.8066C0.185427 27.1772 0 27.6172 0 28.125V41.2503C0 41.7577 0.185427 42.1976 0.556588 42.5686C0.927955 42.939 1.36746 43.1256 1.8753 43.1256C2.38305 43.1256 2.82234 42.9391 3.19361 42.5686L6.97285 38.7889C9.06282 40.7807 11.4409 42.3143 14.107 43.3885C16.7731 44.4631 19.5319 44.9997 22.3833 44.9997C27.7352 44.9997 32.403 43.3737 36.3874 40.1219C40.3717 36.8702 42.9889 32.6266 44.2395 27.3924C44.2591 27.3534 44.2683 27.285 44.2683 27.1877C44.2683 26.9334 44.1753 26.7144 43.9897 26.5282C43.804 26.3436 43.5841 26.2505 43.3298 26.2505Z" fill="#E5768B"/>
</g>
<defs>
<clipPath id="clip0_31_491">
<rect width="45" height="45" fill="white"/>
</clipPath>
</defs>
</svg>
