<svg width="47" height="47" viewBox="0 0 47 47" fill="none" xmlns="http://www.w3.org/2000/svg">
<path d="M9.82961 26.9849C9.38899 27.6115 9.54403 28.4738 10.1702 28.909L11.1165 29.5662C9.57194 31.0565 7.50054 31.8997 5.33707 31.8997H2.75391V28.9163C2.75391 28.1559 2.1374 27.5394 1.37695 27.5394C0.616508 27.5394 0 28.1559 0 28.9163V42.9613C0 43.7217 0.616508 44.3382 1.37695 44.3382C2.1374 44.3382 2.75391 43.7217 2.75391 42.9613V40.1615H4.62032C9.56193 40.1615 14.3945 38.0836 17.8273 34.2267L19.2048 35.1833C19.8302 35.6201 20.6979 35.4598 21.128 34.8271L22.0716 33.4419L10.9009 25.4639L9.82961 26.9849Z" fill="#E5768B"/>
<path d="M46.3997 27.108L45.892 26.761L35.3308 35.1999L38.3528 37.3755C38.9429 37.8002 39.7682 37.6929 40.2282 37.1221L46.6943 29.1101C47.2012 28.4817 47.0602 27.5584 46.3997 27.108Z" fill="#E5768B"/>
<path d="M44.2614 22.3046L17.7846 3.18384C16.5954 2.32481 14.9442 2.54806 14.0255 3.69166L5.32396 14.5223C4.33439 15.7543 4.58417 17.5696 5.87043 18.4882L29.2943 35.2159C29.7949 35.5734 30.4727 35.5557 30.954 35.1711L44.3148 24.4967C45.0247 23.9296 45.0002 22.838 44.2614 22.3046ZM34.5156 24.7396C33.7552 24.7396 33.1387 24.1231 33.1387 23.3626C33.1387 22.6022 33.7552 21.9857 34.5156 21.9857C35.2761 21.9857 35.8926 22.6022 35.8926 23.3626C35.8926 24.1231 35.2761 24.7396 34.5156 24.7396Z" fill="#E5768B"/>
</svg>
