<svg width="56" height="56" viewBox="0 0 56 56" fill="none" xmlns="http://www.w3.org/2000/svg">
<path d="M49.14 13.2813C47.4286 11.0329 45.0112 9.42491 42.276 8.71576C39.5407 8.00661 36.6465 8.23745 34.0583 9.37119C31.7417 10.3709 29.6756 12.0563 28 14.2931C26.3244 12.0509 24.2583 10.3654 21.9417 9.37119C19.3535 8.23745 16.4593 8.00661 13.724 8.71576C10.9888 9.42491 8.57135 11.0329 6.86 13.2813C5.05531 15.646 4.10156 18.6013 4.10156 21.8268C4.10156 26.4687 6.86984 31.5612 12.3288 36.9687C16.777 41.3732 22.0336 44.9804 24.7702 46.7381C25.7344 47.3552 26.8552 47.6831 28 47.6831C29.1448 47.6831 30.2656 47.3552 31.2298 46.7381C33.9642 44.9804 39.223 41.3732 43.6712 36.9687C49.1302 31.5634 51.8984 26.4687 51.8984 21.8268C51.8984 18.6013 50.9447 15.646 49.14 13.2813Z" fill="#E5768B"/>
</svg>
