<svg width="53" height="53" viewBox="0 0 53 53" fill="none" xmlns="http://www.w3.org/2000/svg">
<g clip-path="url(#clip0_31_407)">
<path d="M52.934 16.4812C52.8327 16.2128 52.6239 15.9991 52.3578 15.8918L47.8877 14.0884C47.61 12.6443 46.5132 11.4878 45.1017 11.1232L44.8606 8.34549C44.8254 7.93904 44.5525 7.5921 44.1659 7.46179C43.7791 7.33147 43.3521 7.44275 43.0782 7.74499L41.931 9.01041L41.2219 6.52883C41.0997 6.10106 40.7156 5.80076 40.271 5.78525C39.8257 5.77032 39.4224 6.04269 39.2706 6.46111L33.9726 21.0769L14.3647 21.9923C14.3565 21.9927 14.3482 21.993 14.3401 21.9934C10.3151 22.2352 6.50366 20.0819 4.63011 16.5073C4.36697 16.0053 3.74675 15.8115 3.24499 16.0748C2.74299 16.3379 2.5494 16.958 2.81243 17.4599C4.47722 20.6364 7.41769 22.8774 10.7932 23.7082C10.6734 23.814 10.5529 23.9255 10.432 24.0446C9.14427 25.3149 7.60717 27.6367 7.38383 31.58L2.94137 33.5312C2.68188 33.6451 2.48111 33.8613 2.38659 34.1285L0.0588242 40.7102C-0.10615 41.1769 0.0853888 41.6947 0.5143 41.9417L1.63207 42.585C1.78963 42.6758 1.96635 42.7219 2.14409 42.7219C2.2638 42.7219 2.38397 42.7009 2.49889 42.6586C2.78438 42.5533 3.00853 42.3268 3.11068 42.0401L4.76373 37.3996L8.75208 37.0695L7.54013 38.7156C7.37208 38.9439 7.30596 39.2314 7.35737 39.51L8.62347 46.3755C8.7132 46.8622 9.13766 47.2155 9.63258 47.2155H10.9223C11.2266 47.2155 11.5153 47.0804 11.7102 46.8468C11.9052 46.6131 11.9863 46.3049 11.9319 46.0056L11.0495 41.1592L19.6127 35.234C19.5881 35.2547 19.6391 35.2158 19.6127 35.234C20.4238 34.5528 21.0125 33.8025 21.4337 33.031C25.7455 33.7879 31.7694 34.8641 35.6538 35.4934C35.5978 35.4784 35.7057 35.5172 35.6538 35.4934L43.7029 46.4984C43.9019 46.7704 44.2131 46.9188 44.5317 46.9188C44.6906 46.9188 44.8514 46.8819 45.0008 46.8049L45.9442 46.3191C46.1861 46.1945 46.3686 45.9789 46.4516 45.7198C46.5346 45.4606 46.5113 45.179 46.3866 44.9371L42.2134 36.8329L46.491 37.7034L46.3879 39.1845C46.3618 39.5612 46.5446 39.922 46.8639 40.1235L47.4934 40.5207C47.6591 40.6253 47.8493 40.6791 48.0411 40.6791C48.1461 40.6791 48.2516 40.6629 48.3538 40.6303C48.6427 40.5378 48.8759 40.3223 48.9907 40.0416L50.4611 36.447C50.5688 36.1836 50.5623 35.8872 50.4432 35.6289C50.324 35.3704 50.1028 35.1732 49.8326 35.084L42.1059 32.4253C42.1133 32.3912 44.4108 21.7866 44.4108 21.7866C44.8397 21.8581 45.2729 21.8957 45.7092 21.8957C48.7142 21.8957 51.466 20.1364 52.8905 17.3044C53.0195 17.0481 53.0352 16.7496 52.934 16.4812Z" fill="#E5768B"/>
</g>
<defs>
<clipPath id="clip0_31_407">
<rect width="53" height="53" fill="white"/>
</clipPath>
</defs>
</svg>
