<svg width="62" height="62" viewBox="0 0 62 62" fill="none" xmlns="http://www.w3.org/2000/svg">
<path d="M54.25 11.3344C54.25 11.5475 54.2113 11.7703 54.1338 11.9738C53.7656 12.9231 52.39 15.5 48.4375 15.5C48.4375 15.5 45.5312 15.5 45.5312 17.4375C45.5312 19.375 49.4062 25.1875 49.4062 31.9688C49.4062 31.9688 49.4062 37.7812 45.5312 40.6875C41.6562 43.5938 43.5938 57.1562 43.5938 57.1562C43.5938 57.1562 47.4688 57.1562 47.4688 59.0938V60.0625H40.6875C40.6875 60.0625 37.7812 57.1562 37.7812 51.3438C37.7812 47.5559 38.1978 45.415 38.4788 44.3784C38.595 44.0588 38.6725 43.8263 38.7112 43.7003C38.6531 43.8166 38.5756 44.0297 38.4788 44.3784C37.7328 46.4419 35.3691 52.0025 31.4069 53.0972C31.7169 52.0509 31.9688 50.7916 31.9688 49.4062C31.9688 43.5938 27.125 42.625 27.125 42.625C27.125 42.625 31 44.5625 31 48.4375C31 50.375 30.5156 52.0703 30.0312 53.2812C29.5469 54.4922 29.0625 55.2188 29.0625 55.2188C29.0625 55.2188 30.0312 57.1562 32.9375 57.1562C35.8438 57.1562 35.8438 59.0938 35.8438 59.0938V60.0625H20.3438C16.4688 60.0625 12.5938 59.0938 12.5938 53.2812C12.5938 47.4688 12.5938 44.5625 15.5 40.6875C18.4062 36.8125 22.2812 37.7812 28.0938 30.0312C31.8622 25.0131 33.5962 19.9853 34.3519 17.0694C34.6619 17.3503 35.0881 17.4375 35.8438 17.4375C37.7812 17.4375 43.5938 17.4375 40.6875 9.6875C41.6562 15.5 38.75 16.4688 36.8125 16.4688C35.6597 16.4688 35.1947 15.7809 34.7975 15.0253C34.5359 14.5022 34.2938 13.95 33.9062 13.5625C32.9375 12.5938 31.9688 13.5625 31.9688 10.6562C31.9688 7.75 35.8438 2.90625 41.6562 2.90625C47.4688 2.90625 48.4375 7.75 48.4375 7.75C49.5903 8.90281 51.4309 9.36781 52.7291 9.56156C53.6009 9.6875 54.25 10.4431 54.25 11.3344Z" fill="#E5768B"/>
<path d="M38.7113 43.7003V43.6906C38.7307 43.6616 38.7404 43.6422 38.7404 43.6228C38.7404 43.6034 38.7501 43.5938 38.7501 43.5938" fill="#E5768B"/>
<path d="M10.6563 40.6874C9.3194 44.7077 10.7531 46.8681 11.7703 47.8271C11.625 49.4159 11.625 51.179 11.625 53.2812C11.625 53.7171 11.6444 54.1337 11.6928 54.5212C5.73502 49.6677 4.9794 42.4021 7.75002 37.7812C10.6563 32.9374 17.4375 31.9687 18.4063 32.9374C18.4063 32.9374 12.5938 34.8749 10.6563 40.6874Z" fill="#E5768B"/>
</svg>
