<svg width="51" height="51" viewBox="0 0 51 51" fill="none" xmlns="http://www.w3.org/2000/svg">
<path d="M40.2187 14.9117L41.0739 11.3501L44.6354 10.495L41.0739 9.63962L40.2187 6.07788L39.3634 9.63962L35.8019 10.495L39.3634 11.3501L40.2187 14.9117Z" fill="#E5768B"/>
<path d="M32.3317 6.74842L32.9546 4.25718L35.4458 3.63457L32.9546 3.01165L32.3317 0.520508L31.7091 3.01165L29.2177 3.63457L31.7091 4.25718L32.3317 6.74842Z" fill="#E5768B"/>
<path d="M5.23975 24.091L5.86277 21.5997L8.35381 20.9772L5.86277 20.3542L5.23975 17.863L4.61725 20.3542L2.12579 20.9772L4.61725 21.5997L5.23975 24.091Z" fill="#E5768B"/>
<path d="M15.0299 25.903C15.8937 26.7667 17.2939 26.7667 18.1576 25.903L30.1208 13.9397C30.9846 13.0761 30.9846 11.6757 30.1208 10.8121L27.6969 8.38804C26.8332 7.5243 25.4328 7.5243 24.5692 8.38804L12.6059 20.3513C11.8316 21.1256 11.7538 22.3299 12.3677 23.1935L3.73914 31.074C2.85388 31.9591 2.85388 33.3945 3.73914 34.2797C4.6244 35.1651 6.05974 35.1651 6.945 34.2797L14.7495 25.6226L15.0299 25.903Z" fill="#E5768B"/>
<path d="M33.092 18.0839C33.416 17.76 33.416 17.2348 33.0921 16.911L30.8244 14.6433L29.6517 15.8163L31.9192 18.0839C32.243 18.4077 32.7682 18.4077 33.092 18.0839Z" fill="#E5768B"/>
<path d="M30.9808 20.1951C31.3047 19.8712 31.3047 19.3462 30.9808 19.0222L28.7133 16.7546L27.5404 17.9276L29.808 20.1951C30.1319 20.5191 30.6571 20.5191 30.9808 20.1951Z" fill="#E5768B"/>
<path d="M28.8697 22.3061C29.1936 21.9822 29.1936 21.457 28.8697 21.1332L26.6021 18.8657L25.4293 20.0386L27.6969 22.3061C28.0207 22.63 28.5458 22.6299 28.8697 22.3061Z" fill="#E5768B"/>
<path d="M26.7585 24.4173C27.0825 24.0934 27.0825 23.5682 26.7585 23.2444L24.491 20.9768L23.3181 22.1497L25.5858 24.4173C25.9096 24.7411 26.4346 24.7411 26.7585 24.4173Z" fill="#E5768B"/>
<path d="M24.6474 26.5285C24.9713 26.2046 24.9713 25.6795 24.6474 25.3556L22.3799 23.0881L21.207 24.261L23.4746 26.5285C23.7984 26.8524 24.3234 26.8523 24.6474 26.5285Z" fill="#E5768B"/>
<path d="M19.0958 26.372L21.3633 28.6395C21.6871 28.9635 22.2123 28.9635 22.5362 28.6395C22.8601 28.3156 22.8601 27.7906 22.5362 27.4667L20.2687 25.1992L19.0958 26.372Z" fill="#E5768B"/>
<path d="M43.3055 17.1003C43.3055 17.1003 35.0313 24.5909 30.6028 24.824C26.1744 25.0571 31.302 27.1547 33.3997 27.1547C33.3997 27.1547 27.6894 29.8351 24.7759 31.3502C21.8625 32.8652 29.2044 31.9328 30.4863 31.6997C31.7681 31.4667 19.415 38.3425 15.1032 34.8463C10.7912 31.3503 15.4528 38.5756 19.6482 39.7409C19.6482 39.7409 13.8214 41.6055 10.7912 44.7521C7.76132 47.8987 10.2086 46.6166 13.0055 46.5002C15.8025 46.3836 34.4486 59.3194 44.0048 39.1583C53.5609 18.9972 46.6852 12.9895 43.3055 17.1003Z" fill="#E5768B"/>
</svg>
