<svg width="63" height="63" viewBox="0 0 63 63" fill="none" xmlns="http://www.w3.org/2000/svg">
<path d="M60.0469 49.2188H2.95312C2.40947 49.2188 1.96875 49.6595 1.96875 50.2031V52.1719C1.96875 52.7155 2.40947 53.1562 2.95312 53.1562H60.0469C60.5905 53.1562 61.0312 52.7155 61.0312 52.1719V50.2031C61.0312 49.6595 60.5905 49.2188 60.0469 49.2188Z" fill="#E5768B"/>
<path d="M54.81 28.6945C54.4162 26.8833 52.8117 25.5938 50.961 25.5938H12.029C10.1784 25.5938 8.57386 26.8833 8.18011 28.6945L3.92761 48.2344H59.0526L54.8001 28.6945H54.81ZM44.2968 39.375C44.2968 41.0091 42.9778 42.3281 41.3437 42.3281C39.7096 42.3281 38.3906 41.0091 38.3906 39.375H24.6093C24.6093 41.0091 23.2903 42.3281 21.6562 42.3281C20.0221 42.3281 18.7031 41.0091 18.7031 39.375C18.7031 38.617 18.9984 37.928 19.4709 37.4062C18.9984 36.8845 18.7031 36.1955 18.7031 35.4375C18.7031 33.8034 20.0221 32.4844 21.6562 32.4844C23.2903 32.4844 24.6093 33.8034 24.6093 35.4375H38.3906C38.3906 33.8034 39.7096 32.4844 41.3437 32.4844C42.9778 32.4844 44.2968 33.8034 44.2968 35.4375C44.2968 36.1955 44.0015 36.8845 43.529 37.4062C44.0015 37.928 44.2968 38.617 44.2968 39.375Z" fill="#E5768B"/>
<path d="M45.2812 19.6875C45.2222 19.6875 45.1533 19.7072 45.0942 19.7072C45.2123 19.3922 45.2812 19.0575 45.2812 18.7031C45.2812 17.0691 43.9622 15.75 42.3281 15.75C41.5406 15.75 40.822 16.065 40.3003 16.567C40.3397 16.3012 40.3594 16.0256 40.3594 15.75C40.3594 12.4917 37.7114 9.84375 34.4531 9.84375C31.4705 9.84375 29.0095 12.0586 28.6158 14.9231C28.2811 14.8345 27.9366 14.7656 27.5625 14.7656C26.2336 14.7656 25.0622 15.435 24.3436 16.4391C23.438 15.4153 22.1386 14.7656 20.6719 14.7656C17.955 14.7656 15.75 16.9706 15.75 19.6875C15.75 20.4061 15.9173 21.0952 16.193 21.7153C14.8247 21.9712 13.7812 23.1722 13.7812 24.6094H49.2188V23.625C49.2188 21.4495 47.4567 19.6875 45.2812 19.6875ZM19.6875 22.6406C19.1461 22.6406 18.7031 22.1977 18.7031 21.6562C18.7031 21.1148 19.1461 20.6719 19.6875 20.6719C20.2289 20.6719 20.6719 21.1148 20.6719 21.6562C20.6719 22.1977 20.2289 22.6406 19.6875 22.6406ZM19.6875 19.6875C19.1461 19.6875 18.7031 19.2445 18.7031 18.7031C18.7031 18.1617 19.1461 17.7188 19.6875 17.7188C20.2289 17.7188 20.6719 18.1617 20.6719 18.7031C20.6719 19.2445 20.2289 19.6875 19.6875 19.6875ZM23.625 20.6719C23.0836 20.6719 22.6406 20.2289 22.6406 19.6875C22.6406 19.1461 23.0836 18.7031 23.625 18.7031C24.1664 18.7031 24.6094 19.1461 24.6094 19.6875C24.6094 20.2289 24.1664 20.6719 23.625 20.6719ZM35.4375 14.7656C34.8961 14.7656 34.4531 14.3227 34.4531 13.7812C34.4531 13.2398 34.8961 12.7969 35.4375 12.7969C35.9789 12.7969 36.4219 13.2398 36.4219 13.7812C36.4219 14.3227 35.9789 14.7656 35.4375 14.7656ZM37.4062 18.7031C36.8648 18.7031 36.4219 18.2602 36.4219 17.7188C36.4219 17.1773 36.8648 16.7344 37.4062 16.7344C37.9477 16.7344 38.3906 17.1773 38.3906 17.7188C38.3906 18.2602 37.9477 18.7031 37.4062 18.7031Z" fill="#E5768B"/>
</svg>
