<svg width="48" height="48" viewBox="0 0 48 48" fill="none" xmlns="http://www.w3.org/2000/svg">
<g clip-path="url(#clip0_31_487)">
<path d="M16.8188 40.5033C17.6844 41.2633 18.578 42.0475 19.4972 42.8605C19.5035 42.866 19.5099 42.8717 19.5163 42.8772L22.5741 45.5185C22.9838 45.8725 23.4923 46.0494 24.0007 46.0494C24.5092 46.0494 25.0178 45.8723 25.4275 45.5185L28.4848 42.8772C28.4912 42.8717 28.4974 42.8661 28.5037 42.8606C34.5569 37.5073 39.0954 33.4089 42.3788 29.4118C46.2139 24.7435 48.0001 20.5225 48.0001 16.1282C48.0001 8.17798 41.7726 1.95044 33.8227 1.95044C30.2495 1.95044 26.719 3.2959 24.0007 5.62819C21.2817 3.29575 17.7512 1.95044 14.1779 1.95044C6.22769 1.95029 0 8.17798 0 16.1281C0 25.7382 6.69091 31.612 16.8188 40.5033ZM15.2708 19.6355H21.0901V13.8159H26.9097V19.6355H32.7292V25.4549H26.9097V31.2742H21.0901V25.4549H15.2708V19.6355Z" fill="#E5768B"/>
</g>
<defs>
<clipPath id="clip0_31_487">
<rect width="48" height="48" fill="white"/>
</clipPath>
</defs>
</svg>
