<svg width="31" height="40" viewBox="0 0 31 40" fill="none" xmlns="http://www.w3.org/2000/svg">
<path fill-rule="evenodd" clip-rule="evenodd" d="M2.96884 39.7551C1.98047 38.8259 0.39982 35.9665 0.066662 32.7829C-0.159145 30.6293 0.162908 28.3029 1.58068 26.2645C2.60236 24.7952 4.52357 23.3078 6.62247 21.6764C7.39613 21.075 8.19571 20.4556 8.96938 19.8253C8.97308 19.7965 8.98048 19.7677 8.99159 19.7389C9.04342 19.4868 9.2285 18.4748 9.04342 17.5313C8.8028 16.314 9.6394 15.4605 10.3205 14.7654C10.5426 14.5386 10.7425 14.3333 10.7869 14.2361C10.8758 14.0488 10.2021 13.3681 10.2021 13.3645C9.90592 13.062 9.91703 12.5794 10.228 12.2877C10.3797 12.1473 10.5722 12.0789 10.7684 12.0789C10.7684 12.0789 12.6637 12.068 14.6923 12.8783C15.5215 11.2073 15.8769 9.55792 16.2692 7.73565C16.7209 5.63967 17.2206 3.32401 18.5088 0.453753C18.6828 0.0684102 19.1418 -0.108055 19.5379 0.0612076C19.7415 0.14764 19.8859 0.306098 19.9599 0.493367L21.4073 3.74537H23.7431C23.9837 3.74537 24.1984 3.84981 24.3428 4.01547L25.568 5.22912H30.1508C30.5839 5.22912 30.9356 5.57125 30.9356 5.9926C30.9356 6.05382 30.9282 6.11145 30.9134 6.16907C30.8467 6.50759 30.4099 8.49913 28.9255 9.96847C27.8779 11.0057 26.1492 11.4054 25.0017 11.5567C28.3036 18.8061 26.9155 23.4699 25.5014 28.2308C24.576 31.3388 23.6394 34.4935 24.1207 38.473H24.961C25.3941 38.473 25.7457 38.8151 25.7457 39.2365C25.7457 39.6579 25.3941 40 24.961 40H23.4358C23.0546 40 22.7214 39.7299 22.6622 39.3517C21.9403 34.7456 22.9805 31.2523 24.0022 27.8131C25.3978 23.1205 26.76 18.5324 23.1212 11.2289C23.0731 11.1317 23.0472 11.0237 23.0434 10.912C23.036 10.4943 23.3803 10.1485 23.8134 10.1413C23.8208 10.1413 26.5934 10.1161 27.815 8.90968C28.5072 8.22543 28.9107 7.38632 29.1328 6.76329H25.246C25.0424 6.76329 24.8425 6.68406 24.687 6.5328L23.421 5.27954H20.9001C20.5966 5.27954 20.3116 5.10307 20.182 4.81857L19.2603 2.7442C18.5199 4.73574 18.1497 6.46078 17.8055 8.05617C17.3872 9.99368 17.0133 11.7439 16.0916 13.5806C16.3655 13.7463 16.632 13.9335 16.8874 14.1388C23.2285 19.1915 21.4998 24.986 19.8118 30.6509C19.0048 33.3591 18.209 36.0349 18.4126 38.4838H19.2714C19.7045 38.4838 20.0561 38.8259 20.0561 39.2473C20.0561 39.6687 19.7045 40.0108 19.2714 40.0108H17.7203C17.3427 40.0108 17.0096 39.7407 16.9504 39.3661C16.4728 36.4131 17.3872 33.3411 18.3163 30.2332C19.8599 25.0472 21.4443 19.7425 15.8991 15.3237C14.7182 14.3837 13.2967 13.9624 12.2491 13.7715C12.3602 14.1316 12.3861 14.5206 12.2158 14.8807C12.0566 15.2156 11.7753 15.5037 11.4607 15.8278C11.0276 16.2708 10.4982 16.811 10.587 17.2612C10.761 18.1507 10.6833 19.0762 10.6019 19.6308C10.8425 19.7461 11.2349 19.8757 11.8234 19.9009C12.0529 19.9118 12.4601 19.6777 12.8562 19.4508C13.3115 19.1915 13.7595 18.9358 14.2481 18.8494C15.2624 18.6729 16.0842 19.0942 16.4617 21.0534C16.4691 21.075 16.4728 21.1002 16.4765 21.1218C16.943 23.6679 15.255 24.7735 12.8488 26.3509C12.512 26.5706 12.164 26.8011 11.8012 27.046L11.8605 27.082C12.9932 27.7807 13.7595 28.7098 14.2407 29.765C14.7108 30.7914 14.8959 31.9294 14.8774 33.0782C14.8478 34.9725 14.2666 36.9244 13.4855 38.4874H14.1C14.5331 38.4874 14.8848 38.8295 14.8848 39.2509C14.8848 39.6723 14.5331 40.0144 14.1 40.0144H12.1566C12.0122 40.0144 11.8679 39.9748 11.7383 39.8955C11.3718 39.6687 11.2645 39.2005 11.4977 38.844C12.4638 37.3638 13.2856 35.1634 13.3189 33.0638C13.3337 32.1167 13.1857 31.1947 12.8155 30.3808C12.4564 29.5957 11.879 28.9007 11.0239 28.3713C10.8351 28.256 10.6352 28.148 10.4205 28.0472C9.69122 28.6126 8.94717 29.2608 8.22533 30.0315C5.26392 33.1899 8.63252 38.2425 8.99899 38.7755C9.10634 38.9052 9.17298 39.0708 9.17298 39.2545C9.17298 39.6759 8.82131 40.018 8.3882 40.018H3.55371C3.32791 40.018 3.12061 39.9244 2.97994 39.7731L2.96884 39.7551ZM9.96145 20.9994C9.16557 21.6512 8.36599 22.2706 7.59233 22.872C5.59338 24.4242 3.76471 25.8395 2.87629 27.118C1.69173 28.8178 1.42521 30.795 1.6177 32.6353C1.89163 35.257 3.05768 37.5619 3.87207 38.4766H7.00375C5.87842 36.4167 4.13489 32.1095 7.05557 28.9943C7.58492 28.4325 8.11798 27.9319 8.64733 27.4818C7.99212 27.3521 7.25547 27.2801 6.42628 27.2657C5.99687 27.2621 5.64891 26.9163 5.65631 26.4986C5.66001 26.0808 6.01538 25.7423 6.44478 25.7495C7.89957 25.7711 9.12856 25.9656 10.1613 26.3041C10.7943 25.8503 11.4014 25.4506 11.9641 25.0833C13.8742 23.8336 15.2142 22.9549 14.9255 21.3847C14.9218 21.3631 14.9181 21.3415 14.9181 21.3199C14.7663 20.524 14.6368 20.3151 14.5146 20.3367C14.2999 20.3727 13.9705 20.5636 13.6373 20.7545C13.045 21.093 12.4379 21.4387 11.7531 21.4135C10.9794 21.3847 10.3872 21.201 9.96515 21.0066L9.96145 20.9994Z" fill="#E5768B"/>
</svg>
