<svg width="187" height="15" viewBox="0 0 187 15" fill="none" xmlns="http://www.w3.org/2000/svg">
<path d="M14.3391 12.1901L14.2391 14.6066C13.6876 14.8695 13.1323 14.9595 12.4586 14.9595C11.3333 14.9595 9.56013 14.7146 8.40518 12.8275L6.71348 10.0761C6.53209 9.78078 6.28037 9.61512 5.9102 9.61512H5.31791V12.4062L6.42474 12.6006L6.37292 14.6066C5.36604 14.5562 4.35916 14.5381 3.35599 14.5381C2.35281 14.5381 1.33483 14.5562 0.339059 14.6066L0.287231 12.6006L1.39406 12.4062V3.14713L0.287231 2.95266L0.38718 0.946716H8.48662C11.1334 0.946716 13.869 2.00551 13.869 5.28272C13.869 7.58037 12.5252 8.78682 10.8113 9.30181L11.7071 10.7531C12.4808 12.0172 12.8436 12.1901 14.0392 12.1901H14.3428H14.3391ZM7.91285 6.87451C8.84939 6.87451 9.64156 6.22987 9.64156 5.27912C9.64156 4.32837 8.8679 3.68373 7.93136 3.68373H5.31421V6.87451H7.90914H7.91285Z" fill="#917B7F"/>
<path d="M27.4803 10.7567L27.8838 13.6306L27.7839 14.6102H15.8013L15.7495 12.6042L16.8563 12.4098V3.15073L15.7495 2.95626L15.8494 0.950317H27.7802L27.8801 1.92988L27.4766 4.80374L25.4221 4.9658L25.1038 3.69453H20.7801V6.36672H26.4512L26.3587 8.71479L23.4713 8.90926H20.7764V11.8732H25.1001L25.4184 10.6019L27.4729 10.7639L27.4803 10.7567Z" fill="#917B7F"/>
<path d="M33.5179 4.83975C33.5179 5.27191 33.8214 5.44478 34.6358 5.68967L38.2969 6.49276C40.8103 7.24544 42.6316 8.12777 42.6316 10.4254C42.6316 13.5478 39.2815 14.9487 36.0536 14.9487C32.5332 14.9487 30.3381 13.4037 29.5459 12.4242L30.1604 9.84921C32.1927 11.2681 34.4137 11.8155 35.924 11.8155C37.997 11.8155 38.4375 11.1493 38.4375 10.6523C38.4375 10.1553 38.0266 9.8384 37.1308 9.58631L32.7035 8.62835C30.6601 8.05214 29.4941 6.88531 29.4941 4.9586C29.4941 2.56011 31.7966 0.582977 35.5501 0.582977C38.8484 0.582977 41.125 2.17837 41.8061 3.09671L41.1916 5.67166C40.0737 4.67409 38.0747 3.71253 36.2424 3.71253C34.7024 3.71253 33.5179 3.97543 33.5179 4.83975Z" fill="#917B7F"/>
<path d="M58.8305 7.76764C58.8305 12.2981 55.7062 14.9523 51.2863 14.9523C46.8664 14.9523 43.7421 12.3017 43.7421 7.76764C43.7421 3.23356 46.8664 0.582977 51.2863 0.582977C55.7062 0.582977 58.8305 3.23356 58.8305 7.76764ZM54.6031 7.76764C54.6031 5.65005 53.5111 3.71614 51.2826 3.71614C49.0541 3.71614 47.9621 5.65005 47.9621 7.76764C47.9621 9.88522 49.0541 11.8191 51.2826 11.8191C53.5111 11.8191 54.6031 9.88522 54.6031 7.76764Z" fill="#917B7F"/>
<path d="M73.6893 12.1901L73.5893 14.6066C73.0378 14.8695 72.4825 14.9595 71.8088 14.9595C70.6835 14.9595 68.9103 14.7146 67.7554 12.8275L66.0637 10.0761C65.8823 9.78078 65.6306 9.61512 65.2604 9.61512H64.6681V12.4062L65.775 12.6006L65.7231 14.6066C64.7162 14.5562 63.7094 14.5381 62.7062 14.5381C61.703 14.5381 60.685 14.5562 59.6893 14.6066L59.6375 12.6006L60.7443 12.4062V3.14713L59.6375 2.95266L59.7374 0.946716H67.8368C70.4836 0.946716 73.2192 2.00551 73.2192 5.28272C73.2192 7.58037 71.8754 8.78682 70.1615 9.30181L71.0574 10.7531C71.831 12.0172 72.1938 12.1901 73.3895 12.1901H73.693H73.6893ZM67.2594 6.87451C68.1959 6.87451 68.9881 6.22987 68.9881 5.27912C68.9881 4.32837 68.2144 3.68373 67.2779 3.68373H64.6607V6.87451H67.2557H67.2594Z" fill="#917B7F"/>
<path d="M87.9225 1.92268L87.519 4.79654L85.4646 4.9586L85.1462 3.68733H83.1436V12.4062L84.2504 12.6006L84.1986 14.6066C83.1917 14.5562 82.1885 14.5381 81.1816 14.5381C80.1747 14.5381 79.1605 14.5562 78.1647 14.6066L78.1129 12.6006L79.2197 12.4062V3.68733H77.217L76.8987 4.9586L74.8442 4.79654L74.4407 1.92268L74.5407 0.943115H87.8189L87.9188 1.92268H87.9225Z" fill="#917B7F"/>
<path d="M111.184 12.6006L111.133 14.6066C110.078 14.5562 109.019 14.5381 107.964 14.5381C106.909 14.5381 105.85 14.5562 104.806 14.6066L104.754 12.6006L105.861 12.4062L105.313 10.7603H100.834L100.286 12.4062L101.393 12.6006L101.341 14.6066C100.286 14.5562 99.2277 14.5381 98.1727 14.5381C97.1177 14.5381 96.059 14.5562 95.0151 14.6066L94.9633 12.6006L96.0701 12.4062L99.7681 3.14713L98.6613 2.95266L98.7612 0.946716C101.005 1.04395 103.251 1.04395 105.495 0.946716L110.074 12.4062L111.181 12.6006H111.184ZM104.469 8.21781L103.237 4.50843L103.074 3.48926L102.915 4.50843L101.682 8.21781H104.469Z" fill="#917B7F"/>
<path d="M122.834 3.14713L121.727 2.95266L121.827 0.946716C122.812 0.997135 123.8 1.02595 124.796 1.02595C125.791 1.02595 126.769 0.997135 127.764 0.946716L127.864 2.95266L126.758 3.14713V14.6066C126.102 14.5562 125.451 14.5381 124.796 14.5381C124.14 14.5381 123.489 14.5562 122.834 14.6066L117.744 7.36429L117.422 6.19026V12.4062L118.529 12.6006L118.477 14.6066C117.47 14.5562 116.463 14.5381 115.46 14.5381C114.457 14.5381 113.439 14.5562 112.443 14.6066L112.391 12.6006L113.498 12.4062V3.14713L112.391 2.95266L112.491 0.946716C113.305 0.997135 114.131 1.02595 114.956 1.02595C115.782 1.02595 116.596 0.997135 117.422 0.946716L122.512 8.207L122.834 9.38104V3.14713Z" fill="#917B7F"/>
<path d="M132.14 14.5381C131.126 14.5381 130.119 14.5562 129.123 14.6066L129.071 12.6006L130.178 12.4062V3.14713L129.071 2.95266L129.171 0.946716C130.156 0.997135 131.144 1.02595 132.14 1.02595C133.136 1.02595 134.113 0.997135 135.109 0.946716L135.209 2.95266L134.102 3.14713V12.4062L135.209 12.6006L135.157 14.6066C134.15 14.5562 133.143 14.5381 132.14 14.5381Z" fill="#917B7F"/>
<path d="M146.577 9.89963L146.736 8.88045L148.346 0.943115C149.372 0.993534 150.397 1.02234 151.434 1.02234C152.47 1.02234 153.484 0.993534 154.513 0.943115L155.531 12.4026L156.638 12.597L156.586 14.603C155.58 14.5526 154.573 14.5345 153.569 14.5345C152.566 14.5345 151.559 14.5526 150.553 14.603L150.501 12.597L151.608 12.4026L151.274 4.67049L148.668 14.603C147.972 14.5526 147.28 14.5345 146.577 14.5345C145.874 14.5345 145.178 14.5526 144.485 14.603L141.879 4.67049L141.546 12.4026L142.653 12.597L142.601 14.603C141.594 14.5526 140.587 14.5345 139.584 14.5345C138.581 14.5345 137.574 14.5526 136.567 14.603L136.516 12.597L137.622 12.4026L138.64 0.943115C139.666 0.993534 140.691 1.02234 141.72 1.02234C142.749 1.02234 143.782 0.993534 144.807 0.943115L146.418 8.88045L146.577 9.89963Z" fill="#917B7F"/>
<path d="M174.062 12.6006L174.011 14.6066C172.956 14.5562 171.897 14.5381 170.842 14.5381C169.787 14.5381 168.728 14.5562 167.684 14.6066L167.632 12.6006L168.739 12.4062L168.191 10.7603H163.712L163.164 12.4062L164.271 12.6006L164.219 14.6066C163.164 14.5562 162.106 14.5381 161.051 14.5381C159.996 14.5381 158.937 14.5562 157.893 14.6066L157.841 12.6006L158.948 12.4062L162.646 3.14713L161.539 2.95266L161.639 0.946716C163.883 1.04395 166.13 1.04395 168.373 0.946716L172.952 12.4062L174.059 12.6006H174.062ZM167.347 8.21781L166.115 4.50843L165.952 3.48926L165.793 4.50843L164.56 8.21781H167.347Z" fill="#917B7F"/>
<path d="M187 13.627L186.9 14.6066H175.321L175.269 12.6006L176.376 12.4062V3.14713L175.269 2.95266L175.369 0.946716C176.354 0.997135 177.342 1.02595 178.338 1.02595C179.334 1.02595 180.311 0.997135 181.307 0.946716L181.407 2.95266L180.3 3.14713V11.866H184.224L184.542 10.5947L186.597 10.7567L187 13.6306V13.627Z" fill="#917B7F"/>
</svg>
