<svg width="63" height="63" viewBox="0 0 63 63" fill="none" xmlns="http://www.w3.org/2000/svg">
<path d="M31.5 63C48.897 63 63 48.897 63 31.5C63 14.103 48.897 0 31.5 0C14.103 0 0 14.103 0 31.5C0 48.897 14.103 63 31.5 63Z" fill="#29A71A"/>
<path d="M45.5368 17.4593C42.3456 14.2362 38.1076 12.2596 33.5873 11.886C29.0671 11.5124 24.5621 12.7664 20.885 15.4218C17.2079 18.0772 14.6007 21.9592 13.5338 26.3676C12.4668 30.776 13.0103 35.4205 15.0662 39.4635L13.0481 49.2614C13.0272 49.3589 13.0266 49.4597 13.0463 49.5574C13.0661 49.6552 13.1059 49.7478 13.1631 49.8295C13.2469 49.9535 13.3666 50.0489 13.5061 50.1031C13.6456 50.1573 13.7983 50.1676 13.9439 50.1327L23.5465 47.8567C27.5781 49.8605 32.1899 50.3691 36.5612 49.2918C40.9326 48.2146 44.78 45.6214 47.4188 41.9737C50.0577 38.326 51.3168 33.8604 50.9722 29.3714C50.6275 24.8825 48.7015 20.6614 45.5368 17.4593ZM42.5427 41.3562C40.3347 43.558 37.4914 45.0114 34.4136 45.5117C31.3358 46.0119 28.1786 45.5338 25.3869 44.1446L24.0485 43.4823L18.1614 44.8765L18.1788 44.8034L19.3987 38.8779L18.7435 37.5848C17.317 34.7834 16.8138 31.6024 17.306 28.4975C17.7981 25.3925 19.2603 22.523 21.4831 20.3C24.2761 17.5079 28.0636 15.9394 32.0129 15.9394C35.9622 15.9394 39.7497 17.5079 42.5427 20.3C42.5665 20.3273 42.5921 20.3529 42.6194 20.3767C45.3778 23.176 46.9176 26.9523 46.9032 30.8822C46.8889 34.8122 45.3215 38.5771 42.5427 41.3562Z" fill="white"/>
<path d="M42.0197 37.0097C41.2982 38.146 40.1585 39.5367 38.7259 39.8818C36.2163 40.4883 32.3648 39.9027 27.5722 35.4342L27.5129 35.3819C23.2989 31.4747 22.2045 28.2226 22.4694 25.6433C22.6157 24.1794 23.8357 22.8549 24.8639 21.9905C25.0265 21.8518 25.2193 21.753 25.4268 21.7021C25.6344 21.6511 25.851 21.6495 26.0593 21.6973C26.2676 21.745 26.4619 21.8409 26.6265 21.9771C26.7912 22.1134 26.9216 22.2863 27.0075 22.482L28.5586 25.9675C28.6594 26.1935 28.6967 26.4427 28.6666 26.6883C28.6366 26.9339 28.5402 27.1667 28.3878 27.3617L27.6036 28.3795C27.4353 28.5896 27.3337 28.8453 27.312 29.1137C27.2903 29.382 27.3493 29.6507 27.4816 29.8852C27.9207 30.6556 28.9734 31.7884 30.141 32.8375C31.4516 34.0226 32.9051 35.1066 33.8252 35.4761C34.0715 35.5766 34.3422 35.6012 34.6025 35.5465C34.8628 35.4918 35.1007 35.3605 35.2857 35.1693L36.1954 34.2526C36.3709 34.0795 36.5892 33.9561 36.828 33.8949C37.0668 33.8336 37.3176 33.8368 37.5548 33.9041L41.239 34.9497C41.4422 35.0121 41.6285 35.1201 41.7836 35.2654C41.9387 35.4108 42.0585 35.5897 42.1338 35.7885C42.2092 35.9873 42.238 36.2007 42.2183 36.4123C42.1985 36.624 42.1306 36.8283 42.0197 37.0097Z" fill="white"/>
</svg>
